<svg xmlns="http://www.w3.org/2000/svg" width="17" height="24" viewBox="331 162 363 508">
<path fill="#ffffff" d="
M331.673035,184.001602
	C331.677155,179.336594 331.744995,175.169907 331.667297,171.005951
	C331.592041,166.971039 333.003418,163.781372 336.747284,162.033447
	C340.800049,160.141327 344.269012,161.635864 347.187592,164.517120
	C357.621094,174.817154 367.989868,185.182816 378.376251,195.530624
	C416.851135,233.862442 455.361847,272.158386 493.785614,310.541382
	C533.382263,350.096008 572.865356,389.764343 612.451660,429.329376
	C638.245300,455.109100 664.117554,480.810242 690.002197,506.498688
	C693.301453,509.772949 695.675598,513.388855 693.809143,518.028442
	C691.772034,523.092102 687.181458,524.059998 682.216370,524.055908
	C636.398926,524.017761 590.581543,524.009705 544.764099,523.995667
	C523.938049,523.989319 503.111603,524.057983 482.286377,523.925964
	C478.275604,523.900513 475.519043,525.294678 472.833984,528.282532
	C454.354919,548.845215 435.678589,569.230530 417.101196,589.705078
	C395.843201,613.133911 374.629639,636.603088 353.372192,660.032471
	C351.359314,662.250977 349.210785,664.351501 347.055176,666.434326
	C344.003204,669.383179 340.292816,670.361206 336.495361,668.530518
	C332.882050,666.788757 331.640961,663.368347 331.660919,659.365723
	C331.725769,646.369751 331.666779,633.373230 331.666870,620.376892
	C331.667694,475.084961 331.670654,329.793060 331.673035,184.001602 Z"/>
</svg>